<?xml version="1.0" encoding="UTF-8"?>
<svg version="1.1" xmlns="http://www.w3.org/2000/svg" width="480" height="480">
<path d="M0 0 C158.4 0 316.8 0 480 0 C480 158.4 480 316.8 480 480 C321.6 480 163.2 480 0 480 C0 321.6 0 163.2 0 0 Z " fill="#C8E9FA" transform="translate(0,0)"/>
<path d="M0 0 C33 0 66 0 100 0 C100 6.6 100 13.2 100 20 C106.6 20 113.2 20 120 20 C120 13.4 120 6.8 120 0 C126.6 0 133.2 0 140 0 C140 13.2 140 26.4 140 40 C153.2 40 166.4 40 180 40 C180 46.6 180 53.2 180 60 C173.4 60 166.8 60 160 60 C160 66.6 160 73.2 160 80 C166.6 80 173.2 80 180 80 C180 86.6 180 93.2 180 100 C173.4 100 166.8 100 160 100 C160 172.6 160 245.2 160 320 C153.4 320 146.8 320 140 320 C140 326.6 140 333.2 140 340 C133.4 340 126.8 340 120 340 C120 346.6 120 353.2 120 360 C93.6 360 67.2 360 40 360 C40 373.2 40 386.4 40 400 C7 400 -26 400 -60 400 C-60 340.6 -60 281.2 -60 220 C-66.6 220 -73.2 220 -80 220 C-80 193.6 -80 167.2 -80 140 C-73.4 140 -66.8 140 -60 140 C-60 133.4 -60 126.8 -60 120 C-66.6 120 -73.2 120 -80 120 C-80 113.4 -80 106.8 -80 100 C-73.4 100 -66.8 100 -60 100 C-60 93.4 -60 86.8 -60 80 C-66.6 80 -73.2 80 -80 80 C-80 73.4 -80 66.8 -80 60 C-73.4 60 -66.8 60 -60 60 C-60 53.4 -60 46.8 -60 40 C-53.4 40 -46.8 40 -40 40 C-40 33.4 -40 26.8 -40 20 C-26.8 20 -13.6 20 0 20 C0 13.4 0 6.8 0 0 Z " fill="#B08A63" transform="translate(180,80)"/>
<path d="M0 0 C33 0 66 0 100 0 C100 6.6 100 13.2 100 20 C106.6 20 113.2 20 120 20 C120 13.4 120 6.8 120 0 C126.6 0 133.2 0 140 0 C140 13.2 140 26.4 140 40 C153.2 40 166.4 40 180 40 C180 46.6 180 53.2 180 60 C173.4 60 166.8 60 160 60 C160 66.6 160 73.2 160 80 C166.6 80 173.2 80 180 80 C180 86.6 180 93.2 180 100 C173.4 100 166.8 100 160 100 C160 172.6 160 245.2 160 320 C153.4 320 146.8 320 140 320 C140 267.2 140 214.4 140 160 C133.4 160 126.8 160 120 160 C120 166.6 120 173.2 120 180 C113.4 180 106.8 180 100 180 C100 166.8 100 153.6 100 140 C113.2 140 126.4 140 140 140 C140 133.4 140 126.8 140 120 C133.4 120 126.8 120 120 120 C120 113.4 120 106.8 120 100 C113.4 100 106.8 100 100 100 C100 93.4 100 86.8 100 80 C93.4 80 86.8 80 80 80 C80 93.2 80 106.4 80 120 C73.4 120 66.8 120 60 120 C60 106.8 60 93.6 60 80 C53.4 80 46.8 80 40 80 C40 86.6 40 93.2 40 100 C33.4 100 26.8 100 20 100 C20 106.6 20 113.2 20 120 C13.4 120 6.8 120 0 120 C0 126.6 0 133.2 0 140 C-6.6 140 -13.2 140 -20 140 C-20 133.4 -20 126.8 -20 120 C-26.6 120 -33.2 120 -40 120 C-40 133.2 -40 146.4 -40 160 C-46.6 160 -53.2 160 -60 160 C-60 173.2 -60 186.4 -60 200 C-53.4 200 -46.8 200 -40 200 C-40 266 -40 332 -40 400 C-46.6 400 -53.2 400 -60 400 C-60 340.6 -60 281.2 -60 220 C-66.6 220 -73.2 220 -80 220 C-80 193.6 -80 167.2 -80 140 C-73.4 140 -66.8 140 -60 140 C-60 133.4 -60 126.8 -60 120 C-66.6 120 -73.2 120 -80 120 C-80 113.4 -80 106.8 -80 100 C-73.4 100 -66.8 100 -60 100 C-60 93.4 -60 86.8 -60 80 C-66.6 80 -73.2 80 -80 80 C-80 73.4 -80 66.8 -80 60 C-73.4 60 -66.8 60 -60 60 C-60 53.4 -60 46.8 -60 40 C-53.4 40 -46.8 40 -40 40 C-40 33.4 -40 26.8 -40 20 C-26.8 20 -13.6 20 0 20 C0 13.4 0 6.8 0 0 Z " fill="#000000" transform="translate(180,80)"/>
<path d="M0 0 C6.6 0 13.2 0 20 0 C20 6.6 20 13.2 20 20 C26.6 20 33.2 20 40 20 C40 26.6 40 33.2 40 40 C46.6 40 53.2 40 60 40 C60 53.2 60 66.4 60 80 C40.2 80 20.4 80 0 80 C0 53.6 0 27.2 0 0 Z " fill="#B08A63" transform="translate(140,400)"/>
<path d="M0 0 C33 0 66 0 100 0 C100 6.6 100 13.2 100 20 C73.6 20 47.2 20 20 20 C20 33.2 20 46.4 20 60 C13.4 60 6.8 60 0 60 C0 40.2 0 20.4 0 0 Z " fill="#000000" transform="translate(200,420)"/>
<path d="M0 0 C19.8 0 39.6 0 60 0 C60 6.6 60 13.2 60 20 C40.2 20 20.4 20 0 20 C0 13.4 0 6.8 0 0 Z " fill="#000000" transform="translate(220,360)"/>
<path d="M0 0 C13.2 0 26.4 0 40 0 C40 6.6 40 13.2 40 20 C33.4 20 26.8 20 20 20 C20 26.6 20 33.2 20 40 C13.4 40 6.8 40 0 40 C0 26.8 0 13.6 0 0 Z " fill="#845926" transform="translate(280,220)"/>
<path d="M0 0 C13.2 0 26.4 0 40 0 C40 6.6 40 13.2 40 20 C33.4 20 26.8 20 20 20 C20 26.6 20 33.2 20 40 C13.4 40 6.8 40 0 40 C0 26.8 0 13.6 0 0 Z " fill="#845926" transform="translate(180,220)"/>
<path d="M0 0 C13.2 0 26.4 0 40 0 C40 6.6 40 13.2 40 20 C26.8 20 13.6 20 0 20 C0 13.4 0 6.8 0 0 Z " fill="#000000" transform="translate(240,300)"/>
<path d="M0 0 C6.6 0 13.2 0 20 0 C20 6.6 20 13.2 20 20 C13.4 20 6.8 20 0 20 C0 13.4 0 6.8 0 0 Z " fill="#FFCA1E" transform="translate(180,440)"/>
<path d="M0 0 C6.6 0 13.2 0 20 0 C20 6.6 20 13.2 20 20 C13.4 20 6.8 20 0 20 C0 13.4 0 6.8 0 0 Z " fill="#FFCA1E" transform="translate(160,420)"/>
<path d="M0 0 C6.6 0 13.2 0 20 0 C20 6.6 20 13.2 20 20 C13.4 20 6.8 20 0 20 C0 13.4 0 6.8 0 0 Z " fill="#000000" transform="translate(300,400)"/>
<path d="M0 0 C6.6 0 13.2 0 20 0 C20 6.6 20 13.2 20 20 C13.4 20 6.8 20 0 20 C0 13.4 0 6.8 0 0 Z " fill="#FFCA1E" transform="translate(140,400)"/>
<path d="M0 0 C6.6 0 13.2 0 20 0 C20 6.6 20 13.2 20 20 C13.4 20 6.8 20 0 20 C0 13.4 0 6.8 0 0 Z " fill="#AC7D40" transform="translate(300,240)"/>
<path d="M0 0 C6.6 0 13.2 0 20 0 C20 6.6 20 13.2 20 20 C13.4 20 6.8 20 0 20 C0 13.4 0 6.8 0 0 Z " fill="#000000" transform="translate(280,240)"/>
<path d="M0 0 C6.6 0 13.2 0 20 0 C20 6.6 20 13.2 20 20 C13.4 20 6.8 20 0 20 C0 13.4 0 6.8 0 0 Z " fill="#AC7D40" transform="translate(200,240)"/>
<path d="M0 0 C6.6 0 13.2 0 20 0 C20 6.6 20 13.2 20 20 C13.4 20 6.8 20 0 20 C0 13.4 0 6.8 0 0 Z " fill="#000000" transform="translate(180,240)"/>
<path d="M0 0 C6.6 0 13.2 0 20 0 C20 6.6 20 13.2 20 20 C13.4 20 6.8 20 0 20 C0 13.4 0 6.8 0 0 Z " fill="#B08A63" transform="translate(160,180)"/>
</svg>
